# xmcd
#
# Track frame offsets:
#	150
#	14475
#	26927
#	43536
#	56907
#	70443
#	82703
#	98908
#	115127
#	127588
#	141716
#	153589
#	169736
#	180563
#	195605
#
# Disc length: 2824 seconds
#
# Revision: 0
# Processed by: cddbd v1.5.2PL0 Copyright (c) Steve Scherf et al.
# Submitted via: audiograbber 1.83.01
#
DISCID=cf0b060f
DTITLE=Hillcrest - Hillcrest Pure Country 85
DYEAR=2018
DGENRE=Country
TTITLE0=All Her Memories are in Ft. Worth -Lonnie Spiker
TTITLE1=Love In Your Eyes -David McLachlan
TTITLE2=My Past Walked Past -Laural Mendes
TTITLE3=Let Me Be Everything to You -Darnel Miller
TTITLE4=The Star -Bonita Mercer
TTITLE5=Lonely Women and Honky Tonk Nights -Jeff Woosey
TTITLE6=Lonely Street -Don Allen
TTITLE7=Daddy´s Girl -Anastasia
TTITLE8=Jukebox Junkie -Otis C Truax
TTITLE9=Shelter Of Your Eyes Bran -Brandon McPhee
TTITLE10=Blues on Parade -Paul Alan Coons
TTITLE11=There Was You -Bo Weast
TTITLE12=Shelter Of Your Smile -Glenn Reid
TTITLE13=Old Familiar Ways -Vanessa Bourne
TTITLE14=Keeps on Coming -Amanda McCarthy
EXTD=
EXTT0=
EXTT1=
EXTT2=
EXTT3=
EXTT4=
EXTT5=
EXTT6=
EXTT7=
EXTT8=
EXTT9=
EXTT10=
EXTT11=
EXTT12=
EXTT13=
EXTT14=
PLAYORDER=
